# File created by Blade
# Date/Time:  Tue Sep 30 19:33:40 2014
#---------------------------------------------------------
:version 1.10
:name HOM
:units
  mass 1.0
  length 1.000000
  angle deg
:documentation
     Acclaim Skeleton File
:root
   axis xyz
   order TX TY TZ RX RY RZ
   position 0.000000 0.000000 0.000000
   orientation 0 0 0
:bonedata
   begin
      id 1
      name Spine_dum
      direction 0.000000 1.000000 0.000000
      length 3.241213
      axis 0.0 0.0 0.0 xyz
   end
   begin
      id 2
      name LeftUpLeg_dum
      direction 1.000000 0.000000 0.000000
      length 3.434019
      axis 0.0 0.0 0.0 xyz
   end
   begin
      id 3
      name RightUpLeg_dum
      direction -1.000000 0.000000 0.000000
      length 3.434019
      axis 0.0 0.0 0.0 xyz
   end
   begin
      id 4
      name Spine
      direction 0.000000 1.000000 0.000000
      length 0.000000
      axis 0.0 0.0 0.0 xyz
      dof rx ry rz
   end
   begin
      id 5
      name Spine_dum1
      direction 0.000000 1.000000 0.000000
      length 18.382958
      axis 0.0 0.0 0.0 xyz
   end
   begin
      id 6
      name Spine_dum2
      direction 0.000000 1.000000 0.000000
      length 12.828261
      axis 0.0 0.0 0.0 xyz
   end
   begin
      id 7
      name Spine_dum3
      direction 0.000000 1.000000 0.000000
      length 12.828261
      axis 0.0 0.0 0.0 xyz
   end
   begin
      id 8
      name Head
      direction 0.000000 1.000000 0.000000
      length 4.527550
      axis 0.0 0.0 0.0 xyz
      dof rx ry rz
   end
   begin
      id 9
      name LeftShoulder
      direction 1.000000 0.000000 0.000000
      length 7.748055
      axis 0.0 0.0 -90.0 xyz
      dof rx ry rz
   end
   begin
      id 10
      name LeftArm
      direction 1.000000 0.000000 0.000000
      length 10.635614
      axis 0.0 0.0 -90.0 xyz
      dof rx ry rz
   end
   begin
      id 11
      name LeftForeArm
      direction 1.000000 0.000000 0.000000
      length 8.346755
      axis 0.0 0.0 -90.0 xyz
      dof ry rz rx
   end
   begin
      id 12
      name LeftHand
      direction 0.000000 0.000000 0.000000
      length 0.000000
      axis 0.0 0.0 -90.0 xyz
      dof rx ry rz
   end
   begin
      id 13
      name LeftHand_dum1
      direction 0.000000 0.000000 0.000000
      length 0.000000
      axis 0.0 0.0 -90.0 xyz
   end
   begin
      id 14
      name LeftHand_dum2
      direction 1.000000 0.000000 0.000000
      length 3.937000
      axis 0.0 0.0 -90.0 xyz
   end
   begin
      id 15
      name LeftHandThumb1
      direction 0.000000 0.000000 1.000000
      length 3.937000
      axis 0.0 0.0 -90.0 xyz
      dof rx rz ry
   end
   begin
      id 16
      name RightShoulder
      direction -1.000000 0.000000 0.000000
      length 7.748055
      axis 0.0 0.0 90.0 xyz
      dof rx ry rz
   end
   begin
      id 17
      name RightArm
      direction -1.000000 0.000000 0.000000
      length 10.635614
      axis 0.0 0.0 90.0 xyz
      dof rx ry rz
   end
   begin
      id 18
      name RightForeArm
      direction -1.000000 0.000000 0.000000
      length 8.346755
      axis 0.0 0.0 90.0 xyz
      dof ry rz rx
   end
   begin
      id 19
      name RightHand
      direction 0.000000 0.000000 0.000000
      length 0.000000
      axis 0.0 0.0 90.0 xyz
      dof rx ry rz
   end
   begin
      id 20
      name RightHand_dum1
      direction 0.000000 0.000000 0.000000
      length 0.000000
      axis 0.0 0.0 90.0 xyz
   end
   begin
      id 21
      name RightHand_dum2
      direction -1.000000 0.000000 0.000000
      length 3.937000
      axis 0.0 0.0 90.0 xyz
   end
   begin
      id 22
      name RightHandThumb1
      direction 0.000000 0.000000 1.000000
      length 3.937000
      axis 0.0 0.0 90.0 xyz
      dof rx rz ry
   end
   begin
      id 23
      name LeftUpLeg
      direction 0.000000 -1.000000 0.000000
      length 15.713025
      axis 0.0 0.0 0.0 xyz
      dof rx ry rz
   end
   begin
      id 24
      name LeftLeg
      direction 0.000000 -1.000000 0.000000
      length 14.435119
      axis 0.0 0.0 0.0 xyz
      dof rx ry rz
   end
   begin
      id 25
      name LeftFoot
      direction 0.000000 -0.258819 0.965926
      length 4.938895
      axis 15.0 0.0 0.0 xyz
      dof rx ry rz
   end
   begin
      id 26
      name LeftToeBase
      direction 0.000000 0.000000 1.000000
      length 2.952750
      axis 0.0 0.0 0.0 xyz
      dof rx ry rz
   end
   begin
      id 27
      name RightUpLeg
      direction 0.000000 -1.000000 0.000000
      length 15.713025
      axis 0.0 0.0 0.0 xyz
      dof rx ry rz
   end
   begin
      id 28
      name RightLeg
      direction 0.000000 -1.000000 0.000000
      length 14.435119
      axis 0.0 0.0 0.0 xyz
      dof rx ry rz
   end
   begin
      id 29
      name RightFoot
      direction 0.000000 -0.258819 0.965926
      length 4.938895
      axis 15.0 0.0 0.0 xyz
      dof rx ry rz
   end
   begin
      id 30
      name RightToeBase
      direction 0.000000 0.000000 1.000000
      length 2.952750
      axis 0.0 0.0 0.0 xyz
      dof rx ry rz
   end
:hierarchy
   begin
      root Spine_dum LeftUpLeg_dum RightUpLeg_dum
      Spine_dum Spine
      LeftUpLeg_dum LeftUpLeg
      RightUpLeg_dum RightUpLeg
      Spine Spine_dum1 Spine_dum2 Spine_dum3
      Spine_dum1 Head
      Spine_dum2 LeftShoulder
      Spine_dum3 RightShoulder
      LeftShoulder LeftArm
      LeftArm LeftForeArm
      LeftForeArm LeftHand
      LeftHand LeftHand_dum1 LeftHand_dum2
      LeftHand_dum1 LeftHandThumb1
      RightShoulder RightArm
      RightArm RightForeArm
      RightForeArm RightHand
      RightHand RightHand_dum1 RightHand_dum2
      RightHand_dum1 RightHandThumb1
      LeftUpLeg LeftLeg
      LeftLeg LeftFoot
      LeftFoot LeftToeBase
      RightUpLeg RightLeg
      RightLeg RightFoot
      RightFoot RightToeBase
   end

# File created by Blade
# Date/Time:  Mon Sep 22 21:09:19 2014
# Frame Rate: 120.000 fps
#------------------------------------------------------
:FULLY-SPECIFIED
:DEGREES
226
root -1.262161 32.300269 -6.342246 20.777430 15.400950 -11.665970
Spine -13.009054 -7.613510 11.554796
Head -15.950819 31.602300 -9.107590
LeftShoulder -1.345481 43.078006 16.483989
LeftArm 83.428996 23.444597 -44.312775
LeftForeArm -23.541769 -0.000000 41.793000
LeftHand -5.704912 -0.000000 -20.233881
LeftHandThumb1 -26.253704 0.000000 33.147579
RightShoulder 7.267574 -47.633286 -20.662360
RightArm 78.974389 -13.126619 39.677706
RightForeArm 72.773558 -0.000000 44.552166
RightHand 6.422810 -0.000000 14.894631
RightHandThumb1 -24.326973 -0.000000 -32.862282
LeftUpLeg -36.027193 -4.371550 8.849337
LeftLeg 23.677054 -0.000000 -0.000000
LeftFoot -11.178870 11.305680 11.818429
LeftToeBase 1.424728 -0.000000 -0.000000
RightUpLeg -129.629131 4.812387 5.098523
RightLeg 87.308098 -0.000000 -0.000000
RightFoot 31.756070 -15.676549 6.676303
RightToeBase 42.504906 -0.000000 -0.000000
227
root -1.263610 32.301433 -6.301802 20.540100 15.796617 -11.794143
Spine -12.954554 -7.726378 11.722186
Head -15.827360 31.461497 -9.037457
LeftShoulder -1.190965 43.054480 16.717068
LeftArm 83.718649 23.638216 -43.842495
LeftForeArm -23.331213 -0.000000 42.200041
LeftHand -5.619296 -0.000000 -20.031099
LeftHandThumb1 -26.253704 0.000000 33.147579
RightShoulder 7.278048 -47.571035 -20.684191
RightArm 79.007023 -13.119003 39.435271
RightForeArm 73.332932 -0.000000 44.660181
RightHand 6.146567 -0.000000 15.004648
RightHandThumb1 -24.326973 -0.000000 -32.862282
LeftUpLeg -35.911508 -4.467498 8.981840
LeftLeg 23.812310 -0.000000 -0.000000
LeftFoot -11.268507 11.146951 11.842559
LeftToeBase 1.342885 -0.000000 -0.000000
RightUpLeg -129.654762 4.626711 5.123064
RightLeg 87.195692 -0.000000 -0.000000
RightFoot 32.027154 -15.581614 6.749118
RightToeBase 42.633844 -0.000000 -0.000000
228
root -1.266914 32.302109 -6.261313 20.289325 16.161280 -11.913379
Spine -12.880099 -7.808230 11.848819
Head -15.684966 31.303283 -8.925619
LeftShoulder -0.949682 43.015583 17.031971
LeftArm 83.917432 23.816307 -43.440333
LeftForeArm -23.546658 0.000000 42.635758
LeftHand -5.532222 -0.000000 -20.012385
LeftHandThumb1 -26.253704 0.000000 33.147579
RightShoulder 7.282455 -47.516278 -20.712232
RightArm 79.098715 -13.150468 39.052932
RightForeArm 74.313090 0.000000 44.816256
RightHand 5.689584 0.000000 14.954508
RightHandThumb1 -24.326973 -0.000000 -32.862282
LeftUpLeg -35.756242 -4.583111 9.120548
LeftLeg 23.912615 -0.000000 -0.000000
LeftFoot -11.328755 11.042434 12.007076
LeftToeBase 1.182359 -0.000000 -0.000000
RightUpLeg -129.663633 4.488495 5.168227
RightLeg 87.079749 -0.000000 -0.000000
RightFoot 32.317008 -15.391372 6.736195
RightToeBase 42.718957 -0.000000 -0.000000
229
root -1.271600 32.302630 -6.222831 20.048816 16.539657 -12.011125
Spine -12.809841 -7.923207 11.952920
Head -15.540006 31.136040 -8.786144
LeftShoulder -0.727390 43.014031 17.304080
LeftArm 84.057078 23.975083 -43.239991
LeftForeArm -23.795641 0.000000 42.991974
LeftHand -5.519583 -0.000000 -20.109343
LeftHandThumb1 -26.253704 0.000000 33.147579
RightShoulder 7.311259 -47.505185 -20.788019
RightArm 79.230045 -13.177645 38.581222
RightForeArm 75.265615 -0.000000 44.915397
RightHand 5.272278 -0.000000 15.356712
RightHandThumb1 -24.326973 -0.000000 -32.862282
LeftUpLeg -35.618108 -4.713760 9.248565
LeftLeg 24.016315 -0.000000 -0.000000
LeftFoot -11.415648 10.901399 12.117062
LeftToeBase 1.136414 -0.000000 -0.000000
RightUpLeg -129.684252 4.334558 5.198747
RightLeg 86.959463 -0.000000 -0.000000
RightFoot 32.643022 -15.104283 6.707475
RightToeBase 42.625781 -0.000000 -0.000000
230
root -1.278393 32.305562 -6.184294 19.848020 16.867194 -12.145216
Spine -12.789007 -7.971732 12.066623
Head -15.366795 30.967662 -8.601137
LeftShoulder -0.493233 43.052082 17.553632
LeftArm 84.127937 24.099248 -43.113136
LeftForeArm -24.492781 -0.000000 43.305952
LeftHand -5.363302 0.000000 -19.984284
LeftHandThumb1 -26.253704 0.000000 33.147579
RightShoulder 7.386588 -47.511333 -20.904319
RightArm 79.326456 -13.224531 38.188879
RightForeArm 76.559126 0.000000 45.027777
RightHand 4.942059 -0.000000 15.637650
RightHandThumb1 -24.326973 -0.000000 -32.862282
LeftUpLeg -35.507225 -4.767268 9.393031
LeftLeg 24.100431 -0.000000 -0.000000
LeftFoot -11.483587 10.753044 12.235363
LeftToeBase 1.038671 -0.000000 -0.000000
RightUpLeg -129.726946 4.256443 5.224608
RightLeg 86.799343 -0.000000 -0.000000
RightFoot 32.922057 -14.849161 6.836387
RightToeBase 42.544166 -0.000000 -0.000000
231
root -1.264174 32.307247 -6.147193 19.697863 17.255705 -12.214691
Spine -12.845335 -8.077571 12.226226
Head -15.145595 30.784554 -8.505877
LeftShoulder -0.254261 43.127334 17.719133
LeftArm 84.064901 24.217828 -43.242129
LeftForeArm -24.982730 -0.000000 43.554026
LeftHand -5.368732 -0.000000 -19.611458
LeftHandThumb1 -26.253704 0.000000 33.147579
RightShoulder 7.469060 -47.488370 -21.131452
RightArm 79.319135 -13.291870 37.984429
RightForeArm 77.325816 -0.000000 45.073729
RightHand 4.915210 0.000000 15.919057
RightHandThumb1 -24.326973 -0.000000 -32.862282
LeftUpLeg -35.422123 -5.035984 9.519460
LeftLeg 24.140261 -0.000000 -0.000000
LeftFoot -11.497415 10.735968 12.324229
LeftToeBase 0.951073 -0.000000 -0.000000
RightUpLeg -129.828132 4.046253 5.270369
RightLeg 86.672541 -0.000000 -0.000000
RightFoot 33.194463 -14.597415 7.011663
RightToeBase 42.384411 -0.000000 -0.000000
232
root -1.261799 32.311446 -6.110448 19.580652 17.576298 -12.339973
Spine -12.923622 -8.100514 12.362093
Head -14.947034 30.583924 -8.299263
LeftShoulder -0.025841 43.199819 17.903773
LeftArm 83.866346 24.327936 -43.584879
LeftForeArm -25.307267 -0.000000 43.692678
LeftHand -5.201236 0.000000 -19.403090
LeftHandThumb1 -26.253704 0.000000 33.147579
RightShoulder 7.535908 -47.513842 -21.308396
RightArm 79.263971 -13.291376 38.000255
RightForeArm 77.831002 -0.000000 45.167633
RightHand 4.705982 -0.000000 16.108882
RightHandThumb1 -24.326973 -0.000000 -32.862282
LeftUpLeg -35.371629 -5.171394 9.687088
LeftLeg 24.180995 -0.000000 -0.000000
LeftFoot -11.548963 10.644028 12.346339
LeftToeBase 0.899660 -0.000000 -0.000000
RightUpLeg -129.947155 3.984837 5.324252
RightLeg 86.464385 -0.000000 -0.000000
RightFoot 33.423545 -14.554796 7.300426
RightToeBase 42.399979 -0.000000 -0.000000
233
root -1.264216 32.315113 -6.077278 19.465893 17.858472 -12.430887
Spine -12.981208 -8.112892 12.423515
Head -14.736802 30.392947 -8.045830
LeftShoulder 0.202872 43.259936 18.107541
LeftArm 83.419324 24.383609 -44.213092
LeftForeArm -25.713556 -0.000000 43.977660
LeftHand -5.397092 -0.000000 -19.089008
LeftHandThumb1 -26.253704 0.000000 33.147579
RightShoulder 7.633052 -47.555646 -21.502903
RightArm 79.146378 -13.272994 38.172524
RightForeArm 77.833307 -0.000000 45.304376
RightHand 4.537835 -0.000000 16.692747
RightHandThumb1 -24.326973 -0.000000 -32.862282
LeftUpLeg -35.316077 -5.246890 9.808916
LeftLeg 24.227769 -0.000000 -0.000000
LeftFoot -11.602590 10.482755 12.328197
LeftToeBase 0.781202 -0.000000 -0.000000
RightUpLeg -130.044356 3.952491 5.341932
RightLeg 86.188631 -0.000000 -0.000000
RightFoot 33.691066 -14.469668 7.423321
RightToeBase 42.279305 -0.000000 -0.000000
234
root -1.268807 32.322497 -6.045150 19.333992 18.103710 -12.579205
Spine -13.009853 -8.075449 12.519104
Head -14.586634 30.195346 -7.813752
LeftShoulder 0.393276 43.359793 18.165368
LeftArm 83.151771 24.362153 -44.594255
LeftForeArm -26.056293 -0.000000 44.008655
LeftHand -5.099520 -0.000000 -18.995652
LeftHandThumb1 -26.253704 0.000000 33.147579
RightShoulder 7.691163 -47.552726 -21.646284
RightArm 79.013033 -13.269021 38.379484
RightForeArm 77.864911 -0.000000 45.513641
RightHand 4.350873 -0.000000 17.229681
RightHandThumb1 -24.326973 -0.000000 -32.862282
LeftUpLeg -35.253846 -5.224031 9.955219
LeftLeg 24.282767 -0.000000 -0.000000
LeftFoot -11.645046 10.271262 12.328677
LeftToeBase 0.570232 -0.000000 -0.000000
RightUpLeg -130.109303 3.994100 5.395812
RightLeg 85.872714 -0.000000 -0.000000
RightFoot 33.882996 -14.346541 7.544211
RightToeBase 42.329994 -0.000000 -0.000000
235
root -1.280603 32.329046 -6.010872 19.107135 18.312379 -12.713701
Spine -12.913415 -8.089733 12.547788
Head -14.497829 30.045144 -7.557226
LeftShoulder 0.450555 43.454266 18.155948
LeftArm 82.898833 24.301820 -44.982612
LeftForeArm -26.269270 -0.000000 44.052441
LeftHand -4.869173 -0.000000 -19.085944
LeftHandThumb1 -26.253704 0.000000 33.147579
RightShoulder 7.842934 -47.616244 -21.831777
RightArm 78.868708 -13.200603 38.639606
RightForeArm 77.424881 0.000000 45.941236
RightHand 4.122222 -0.000000 17.710798
RightHandThumb1 -24.326973 -0.000000 -32.862282
LeftUpLeg -35.088283 -5.129998 10.062943
LeftLeg 24.344115 -0.000000 -0.000000
LeftFoot -11.732018 9.985633 12.283087
LeftToeBase 0.422064 -0.000000 -0.000000
RightUpLeg -130.062386 4.072197 5.439471
RightLeg 85.510195 -0.000000 -0.000000
RightFoot 34.010304 -14.310213 7.649483
RightToeBase 42.134895 -0.000000 -0.000000
236
root -1.286553 32.332322 -5.976668 18.888015 18.483246 -12.774367
Spine -12.819093 -8.105503 12.512308
Head -14.367532 29.904346 -7.316013
LeftShoulder 0.439271 43.605288 18.031704
LeftArm 82.704602 24.126133 -45.062712
LeftForeArm -26.446498 -0.000000 44.383021
LeftHand -4.830948 -0.000000 -18.740373
LeftHandThumb1 -26.253704 0.000000 33.147579
RightShoulder 7.996487 -47.648467 -22.025072
RightArm 78.757614 -13.160074 38.834137
RightForeArm 76.965524 -0.000000 46.386540
RightHand 4.066931 -0.000000 18.069199
RightHandThumb1 -24.326973 -0.000000 -32.862282
LeftUpLeg -34.883838 -5.036925 10.078628
LeftLeg 24.375483 -0.000000 -0.000000
LeftFoot -11.823787 9.717896 12.247441
LeftToeBase 0.314837 -0.000000 -0.000000
RightUpLeg -130.020942 4.154108 5.450630
RightLeg 85.182784 -0.000000 -0.000000
RightFoot 34.015605 -14.384910 7.879733
RightToeBase 41.984922 -0.000000 -0.000000
237
root -1.291335 32.335761 -5.940457 18.673260 18.685817 -12.816114
Spine -12.696653 -8.144356 12.449638
Head -14.387083 29.726444 -7.099360
LeftShoulder 0.347963 43.693909 17.886076
LeftArm 82.515245 24.045958 -45.356493
LeftForeArm -26.130932 -0.000000 44.681746
LeftHand -4.886705 -0.000000 -18.524012
LeftHandThumb1 -26.253704 0.000000 33.147579
RightShoulder 8.007766 -47.643439 -22.073793
RightArm 78.629830 -13.137205 39.018249
RightForeArm 76.474092 -0.000000 46.961179
RightHand 4.021648 -0.000000 17.983620
RightHandThumb1 -24.326973 -0.000000 -32.862282
LeftUpLeg -34.666947 -4.976269 10.088769
LeftLeg 24.376384 -0.000000 -0.000000
LeftFoot -11.935148 9.435438 12.143669
LeftToeBase 0.265017 -0.000000 -0.000000
RightUpLeg -129.993023 4.223565 5.516479
RightLeg 84.854080 -0.000000 -0.000000
RightFoot 34.036843 -14.434491 7.776045
RightToeBase 41.995818 -0.000000 -0.000000
238
root -1.297925 32.340820 -5.909039 18.484622 18.884560 -12.865338
Spine -12.595428 -8.172534 12.394214
Head -14.408244 29.530260 -6.895953
LeftShoulder 0.220866 43.716737 17.694168
LeftArm 82.340356 23.961182 -45.449378
LeftForeArm -25.629866 -0.000000 45.166594
LeftHand -4.742809 0.000000 -18.354083
LeftHandThumb1 -26.253704 0.000000 33.147579
RightShoulder 8.059505 -47.671412 -22.150975
RightArm 78.515548 -13.072065 39.285656
RightForeArm 75.722759 -0.000000 47.452169
RightHand 3.932129 -0.000000 18.120432
RightHandThumb1 -24.326973 -0.000000 -32.862282
LeftUpLeg -34.477101 -4.869427 10.096292
LeftLeg 24.356647 -0.000000 -0.000000
LeftFoot -12.000343 9.120043 12.086244
LeftToeBase 0.140975 -0.000000 -0.000000
RightUpLeg -129.989976 4.285695 5.523497
RightLeg 84.514432 -0.000000 -0.000000
RightFoot 33.993978 -14.555760 7.854928
RightToeBase 41.977155 -0.000000 -0.000000
